<svg width="35" height="35" viewBox="0 0 50 50" fill="#8892B0" xmlns="http://www.w3.org/2000/svg">
<g id="Layer_1">
<path id="Vector" d="M32.4219 8.98438C34.7011 8.98438 36.8869 9.88979 38.4986 11.5014C40.1102 13.1131 41.0156 15.2989 41.0156 17.5781V32.4219C41.0156 34.7011 40.1102 36.8869 38.4986 38.4986C36.8869 40.1102 34.7011 41.0156 32.4219 41.0156H17.5781C15.2989 41.0156 13.1131 40.1102 11.5014 38.4986C9.88979 36.8869 8.98438 34.7011 8.98438 32.4219V17.5781C8.98438 15.2989 9.88979 13.1131 11.5014 11.5014C13.1131 9.88979 15.2989 8.98438 17.5781 8.98438H32.4219ZM32.4219 5.85938H17.5781C14.473 5.86865 11.4976 7.10628 9.30196 9.30196C7.10628 11.4976 5.86865 14.473 5.85938 17.5781V32.4219C5.86865 35.527 7.10628 38.5023 9.30196 40.698C11.4976 42.8937 14.473 44.1314 17.5781 44.1406H32.4219C35.527 44.1314 38.5023 42.8937 40.698 40.698C42.8937 38.5023 44.1314 35.527 44.1406 32.4219V17.5781C44.1314 14.473 42.8937 11.4976 40.698 9.30196C38.5023 7.10628 35.527 5.86865 32.4219 5.85938Z" fill="#8892B0"/>
<path id="Vector_2" d="M35.2109 12.5C34.7682 12.5 34.3355 12.6313 33.9674 12.8772C33.5993 13.1232 33.3124 13.4727 33.143 13.8817C32.9736 14.2907 32.9293 14.7408 33.0157 15.1749C33.102 15.6091 33.3152 16.008 33.6282 16.321C33.9413 16.634 34.3401 16.8472 34.7743 16.9336C35.2085 17.0199 35.6585 16.9756 36.0675 16.8062C36.4765 16.6368 36.8261 16.3499 37.072 15.9818C37.3179 15.6137 37.4492 15.181 37.4492 14.7383C37.4492 14.4443 37.3913 14.1533 37.2788 13.8817C37.1664 13.6102 37.0015 13.3634 36.7936 13.1556C36.5858 12.9477 36.3391 12.7829 36.0675 12.6704C35.7959 12.5579 35.5049 12.5 35.2109 12.5Z" fill="#8892B0"/>
<path id="Vector_3" d="M25.1055 18.1523C26.4717 18.1516 27.8075 18.5561 28.9438 19.3146C30.0802 20.0732 30.966 21.1518 31.4892 22.4139C32.0124 23.676 32.1495 25.0649 31.8831 26.405C31.6168 27.745 30.9589 28.976 29.9928 29.942C29.0267 30.9081 27.7958 31.566 26.4558 31.8323C25.1157 32.0987 23.7268 31.9616 22.4647 31.4384C21.2026 30.9152 20.124 30.0294 19.3654 28.8931C18.6068 27.7567 18.2024 26.4209 18.2031 25.0547C18.2062 23.225 18.9344 21.4712 20.2282 20.1774C21.522 18.8836 23.2758 18.1554 25.1055 18.1523ZM25.1055 15.0273C23.1221 15.0312 21.1845 15.6229 19.5373 16.7277C17.8902 17.8324 16.6075 19.4007 15.8514 21.2342C15.0952 23.0678 14.8996 25.0843 15.2892 27.029C15.6788 28.9737 16.6361 30.7592 18.0401 32.16C19.4442 33.5608 21.232 34.5139 23.1776 34.899C25.1232 35.284 27.1392 35.0837 28.971 34.3233C30.8028 33.5628 32.368 32.2765 33.4689 30.6268C34.5698 28.9771 35.157 27.038 35.1563 25.0547C35.1557 23.736 34.8953 22.4304 34.3897 21.2126C33.8841 19.9947 33.1434 18.8885 32.2099 17.9571C31.2764 17.0258 30.1684 16.2877 28.9494 15.7849C27.7303 15.2822 26.4241 15.0248 25.1055 15.0273Z" fill="#8892B0"/>
</g>
</svg>
