<svg width="35" height="35" viewBox="0 0 50 50" fill="#8892B0" xmlns="http://www.w3.org/2000/svg">
<g id="Layer_1">
<path id="Vector" d="M37.7148 5.46875C38.2254 5.46463 38.7317 5.56143 39.2046 5.75359C39.6776 5.94575 40.108 6.22948 40.471 6.58848C40.8339 6.94747 41.1224 7.37466 41.3198 7.84549C41.5172 8.31632 41.6196 8.82151 41.6211 9.33203V42.9688L37.5391 39.4062L35.2305 37.3047L32.8125 35.0742L33.8203 38.543H12.2852C11.7746 38.5471 11.2684 38.4503 10.7954 38.2581C10.3224 38.066 9.89203 37.7822 9.52905 37.4232C9.16606 37.0643 8.87759 36.6371 8.68021 36.1662C8.48283 35.6954 8.38043 35.1902 8.37891 34.6797V9.33203C8.38043 8.82151 8.48283 8.31632 8.68021 7.84549C8.87759 7.37466 9.16606 6.94747 9.52905 6.58848C9.89203 6.22948 10.3224 5.94575 10.7954 5.75359C11.2684 5.56143 11.7746 5.46463 12.2852 5.46875H37.7148ZM37.7148 2.92969H12.2852C10.5847 2.92865 8.95319 3.6021 7.74857 4.80232C6.54395 6.00255 5.86455 7.63156 5.85938 9.33203V34.6836C5.86455 36.3848 6.54449 38.0144 7.74996 39.2147C8.95542 40.415 10.5879 41.088 12.2891 41.0859H35.5977L35.8125 41.2852L35.8359 41.3047H35.8594L39.9414 44.8672L44.1406 48.5547V9.33203C44.1355 7.63156 43.456 6.00255 42.2514 4.80232C41.0468 3.6021 39.4153 2.92865 37.7148 2.92969Z" fill="#8892B0"/>
<path id="Vector_2" d="M29.0234 28.5586C29.5938 29.2734 30.2773 30.0781 30.2773 30.0781C34.4727 29.9453 36.0859 27.2266 36.0859 27.2266C36.0234 23.4195 35.088 19.6776 33.3516 16.2891C31.816 15.1076 29.9549 14.4259 28.0195 14.3359L27.7539 14.6367C30.9805 15.6133 32.4805 17.0195 32.4805 17.0195C30.7107 16.0567 28.7715 15.4452 26.7695 15.2187C25.4951 15.0806 24.2088 15.0937 22.9375 15.2578C22.8285 15.2615 22.72 15.2745 22.6133 15.2969C21.1289 15.4621 19.6792 15.8575 18.3164 16.4687C17.5977 16.7969 17.1875 17.0117 17.1875 17.0117C17.1875 17.0117 18.75 15.5312 22.1797 14.5547L21.9883 14.3281C20.0529 14.4181 18.1918 15.0998 16.6562 16.2812C14.9198 19.6698 13.9844 23.4117 13.9219 27.2187C13.9219 27.2187 15.5156 29.9531 19.7109 30.0703C19.7109 30.0703 20.4141 29.2266 20.9844 28.5078C18.5742 27.7969 17.6641 26.2969 17.6641 26.2969C17.6641 26.2969 17.8555 26.4297 18.1953 26.6172C18.2166 26.6397 18.2418 26.6582 18.2695 26.6719C18.3281 26.7109 18.3828 26.7266 18.4414 26.7656C18.8886 27.0092 19.3519 27.2219 19.8281 27.4023C20.7316 27.7541 21.6651 28.0234 22.6172 28.207C24.2413 28.5086 25.9071 28.5086 27.5313 28.207C28.4702 28.043 29.3875 27.7731 30.2656 27.4023C31.0326 27.1169 31.7651 26.7461 32.4492 26.2969C32.4492 26.2969 31.5117 27.8672 29.0234 28.5586ZM21.9922 25.9453C20.9375 25.9453 20.0703 24.9805 20.0703 23.8008C20.0379 23.5294 20.0633 23.2543 20.145 22.9934C20.2267 22.7326 20.3627 22.4921 20.5441 22.2877C20.7255 22.0833 20.9482 21.9197 21.1975 21.8076C21.4467 21.6956 21.7169 21.6377 21.9902 21.6377C22.2635 21.6377 22.5337 21.6956 22.783 21.8076C23.0323 21.9197 23.2549 22.0833 23.4364 22.2877C23.6178 22.4921 23.7538 22.7326 23.8355 22.9934C23.9171 23.2543 23.9426 23.5294 23.9102 23.8008C23.9254 24.0684 23.8877 24.3365 23.7991 24.5895C23.7105 24.8426 23.5727 25.0756 23.3938 25.2752C23.2148 25.4749 22.9982 25.6372 22.7563 25.7528C22.5145 25.8685 22.2521 25.9352 21.9844 25.9492L21.9922 25.9453ZM28.8633 25.9453C27.8047 25.9492 26.9531 25 26.9531 23.8047C26.9939 23.4335 27.1412 23.082 27.3774 22.7927C27.6136 22.5035 27.9285 22.2888 28.284 22.1746C28.6396 22.0604 29.0206 22.0517 29.381 22.1494C29.7415 22.2471 30.0659 22.4471 30.3151 22.7252C30.5644 23.0033 30.7277 23.3476 30.7855 23.7165C30.8433 24.0855 30.793 24.4633 30.6406 24.8042C30.4883 25.1452 30.2406 25.4348 29.9272 25.638C29.6139 25.8411 29.2484 25.9493 28.875 25.9492L28.8633 25.9453Z" fill="#8892B0"/>
</g>
</svg>
