<svg width="35" height="35" viewBox="0 0 50 50" fill="#8892B0" xmlns="http://www.w3.org/2000/svg">
<g id="Layer_1">
<path id="Vector" d="M41.4414 8.00781C41.5875 8.00781 41.7276 8.06584 41.8309 8.16913C41.9342 8.27243 41.9922 8.41252 41.9922 8.5586V41.4453C41.9922 41.5914 41.9342 41.7315 41.8309 41.8348C41.7276 41.9381 41.5875 41.9961 41.4414 41.9961H8.55859C8.41252 41.9961 8.27242 41.9381 8.16913 41.8348C8.06584 41.7315 8.00781 41.5914 8.00781 41.4453V8.5586C8.00781 8.41252 8.06584 8.27243 8.16913 8.16913C8.27242 8.06584 8.41252 8.00781 8.55859 8.00781H41.4453M41.4453 5.46875H8.55859C7.73912 5.46875 6.9532 5.79429 6.37374 6.37375C5.79429 6.95321 5.46875 7.73912 5.46875 8.5586V41.4453C5.46979 42.2641 5.79578 43.049 6.37512 43.6276C6.95447 44.2063 7.73979 44.5313 8.55859 44.5313H41.4453C42.2648 44.5313 43.0507 44.2057 43.6302 43.6263C44.2096 43.0468 44.5352 42.2609 44.5352 41.4414V8.5586C44.5352 8.1525 44.4551 7.75039 44.2996 7.37526C44.1441 7.00013 43.9161 6.65933 43.6288 6.37236C43.3414 6.0854 43.0004 5.85788 42.625 5.70283C42.2497 5.54778 41.8475 5.46824 41.4414 5.46875H41.4453Z" fill="#8892B0"/>
<path id="Vector_2" d="M19.1406 19.6875H14.5586V35.9883H19.1406V19.6875Z" fill="#8892B0"/>
<path id="Vector_3" d="M30.168 19.6875C26.2422 19.6875 26.1719 21.957 26.1719 22.1133V19.6875H21.4844V35.9883H26.1719V26.6836C26.1719 25.957 26.3867 24.3945 28.6055 24.3945C30.8242 24.3945 30.8047 26.6328 30.8047 26.6328V36.0078H35.4414V25.8516C35.4414 21.0352 32.8125 19.6875 30.168 19.6875Z" fill="#8892B0"/>
<path id="Vector_4" d="M16.8477 18.5898C18.1119 18.5898 19.1367 17.565 19.1367 16.3008C19.1367 15.0366 18.1119 14.0117 16.8477 14.0117C15.5834 14.0117 14.5586 15.0366 14.5586 16.3008C14.5586 17.565 15.5834 18.5898 16.8477 18.5898Z" fill="#8892B0"/>
</g>
</svg>
